<svg id="圖層_3" data-name="圖層 3" xmlns="http://www.w3.org/2000/svg" viewBox="0 0 392.72 441.58"><defs><style>.cls-1{fill:#fdf168;}</style></defs><title>bi2</title><circle class="cls-1" cx="137.54" cy="222.74" r="16.64"/><circle class="cls-1" cx="255.18" cy="222.74" r="16.64"/><path class="cls-1" d="M358.33,140.8c0.21-12-1.7-19.88-6.34-24.76a16.81,16.81,0,0,0-12.54-5.22,25.36,25.36,0,0,0-5.77.72c-4.79-32-19.68-39.12-32.05-39.12s-27.26,7.16-32,39.12a25.34,25.34,0,0,0-5.76-.72A16.82,16.82,0,0,0,251.27,116c-4.64,4.88-6.56,12.76-6.34,24.76-80.7,24.4-139.66,99.38-139.66,187.94C105.27,434.35,189.68,514,301.62,514S498,434.35,498,328.74C498,240.18,439,165.19,358.33,140.8ZM301.62,484c-94.84,0-166.36-66.75-166.36-155.26,0-74.1,48.72-137,115.79-158.45,10.67,27,33.09,52,50.57,52s39.91-25,50.58-52C419.27,191.75,468,254.64,468,328.74,468,417.25,396.47,484,301.62,484Z" transform="translate(-105.27 -72.42)"/><path class="cls-1" d="M296.4,334.33c-59.68,0-68.59,23.31-68.59,37.2a30.67,30.67,0,0,0,5,16.84,25.19,25.19,0,0,0-5,15.53c0,26.83,33.34,52.2,68.59,52.2s68.6-25.37,68.6-52.2a25.19,25.19,0,0,0-5-15.51,30.68,30.68,0,0,0,5-16.85C365,357.64,356.08,334.33,296.4,334.33Zm0,91.77c-19.72,0-33.58-11.68-37.48-18.79l0.83-.05c10.3,3.52,22.68,5.48,36.67,5.48s26.36-2,36.66-5.48l0.81,0.05C330,414.41,316.12,426.09,296.38,426.09Zm0-43.36c-26.56,0-38.59-8.59-38.71-10.9,1.24-1.94,11-7.5,38.71-7.5s37.46,5.56,38.58,7.2C335,374.14,323,382.73,296.4,382.73Z" transform="translate(-105.27 -72.42)"/></svg>