<svg id="C__1" data-name="C[_1" xmlns="http://www.w3.org/2000/svg" viewBox="0 0 294.03 328.34"><defs><style>.cls-1{fill:#231f20;}</style></defs><title>124124</title><path class="cls-1" d="M202.13,116.93c-31.76,0-57.5,33.57-57.5,75,0,32.24,15.62,59.64,37.5,70.24V421.93a20,20,0,1,0,40,0V262.18c21.88-10.6,37.5-38,37.5-70.24C259.63,150.51,233.89,116.93,202.13,116.93Zm221.53,0a15,15,0,0,0-15,15v71.66a24.9,24.9,0,0,1-10,19.86V128.59a15,15,0,0,0-30,0v94.86a24.9,24.9,0,0,1-10-19.86V131.93a15,15,0,0,0-30,0v71.66a55,55,0,0,0,35,51.19V421.93a20,20,0,0,0,40,0V254.79a55,55,0,0,0,35-51.19V131.93A15,15,0,0,0,423.66,116.93Z" transform="translate(-144.63 -113.59)"/></svg>