<svg id="C__1" data-name="C[_1" xmlns="http://www.w3.org/2000/svg" viewBox="0 0 408.77 457.95"><title>sing</title><path d="M231.24,263.65a76.54,76.54,0,0,1-73.5,55.8,62.42,62.42,0,0,1-7.5-.41l129.7,151.6,45.7-31.3Z" transform="translate(-84.63 -63.55)"/><path d="M189.86,292.69A67.23,67.23,0,1,0,96.4,275.21,67.22,67.22,0,0,0,189.86,292.69Z" transform="translate(-84.63 -63.55)"/><path d="M447.07,487c-6.8,9.54-21.65,15-41,14.5-28-.27-59.73-11.71-74.61-26.06l7.45-5.1-11.66-22.89L289,473.65l17.13,19.14,8.65-5.92c19.55,21.43,60.11,34.33,91.13,34.62h1.19c25.78,0,45.73-8.12,56.28-22.91A10,10,0,0,0,447.07,487Z" transform="translate(-84.63 -63.55)"/><path d="M389.45,181.28l5.83,7.61c13.79-11.32,20.69-21,20.69-34.82,0-.89-0.18-1.94-0.18-3-2.67-41.2-62.24-78.86-64.54-80.27l-12-7.24-1.07,100.23a42,42,0,0,0-20.86-5.13c-13.43,0-27,5.49-35,15.91a29.48,29.48,0,0,0-6.17,17.51,19.08,19.08,0,0,0,.18,3.17c1.94,15.57,17.85,26.35,36.42,26.35a39.86,39.86,0,0,0,6.37-.34c11.66-1.43,23-6.73,28.82-15.57a41.32,41.32,0,0,0,6-19.62c0-12.74.7-37.31,1.23-58.17a13.3,13.3,0,0,1,13.09-13.09,13.58,13.58,0,0,1,8.67,3.71c11.31,12.21,21.39,30.94,21.39,41.55C398.29,171.92,396.7,175.1,389.45,181.28Z" transform="translate(-84.63 -63.55)"/><path d="M441.28,200.37l-27.06,96.52a42.11,42.11,0,0,0-18.82-10.37c-13-3.49-27.54-1.73-37.94,6.27a29.48,29.48,0,0,0-10.51,15.3,19.31,19.31,0,0,0-.65,3.12c-2.17,15.54,10.4,30.08,28.32,34.9a39.49,39.49,0,0,0,6.24,1.32c11.63,1.66,23.92-.53,31.88-7.54a41.39,41.39,0,0,0,10.89-17.39c3.31-12.3,10.37-35.85,16.3-55.86a13.31,13.31,0,0,1,16-9.24,13.57,13.57,0,0,1,7.41,5.84c7.75,14.73,12.62,35.43,9.86,45.68-3.08,11.44-5.44,14.1-14,18.18l3.65,8.87c16.26-7.35,25.45-14.94,29-28.26,0.22-.85.33-1.91,0.61-2.95,8.13-40.48-39.62-92.31-41.48-94.28Z" transform="translate(-84.63 -63.55)"/></svg>