<svg id="Capa_1" data-name="Capa 1" xmlns="http://www.w3.org/2000/svg" viewBox="0 0 313.51 369.79"><title>peac</title><path d="M303.85,225.69c-0.19-17-12-21.58-26.25-21.46l-71.46,0c-3.15-6.94-6.32-19.66-15.44-26.91-16.25-12.9-29.79-7-40-.85-23.08,13.78-49.17,42.63-65,48C66.13,231,42.49,229.3,42.49,229.3v99.42c40.48,0,65.19,14.23,85.8,22.68,46.7,19.15,79.36,18.82,96.44,18.19,35.41-1.32,38.39-30.22,39.35-36,9.19-3.66,15.23-9.25,18-16.64a26.43,26.43,0,0,0,1.63-9.33,37.77,37.77,0,0,0-2.88-13.9c8.05-4.44,13-10.36,14.86-17.61a26.57,26.57,0,0,0,.76-6.26c0.16-14.71-7.23-18.29-7.23-18.29S304,242.69,303.85,225.69Z" transform="translate(-42.49 0)"/><path d="M324.48,87.6c-0.83-.37-1.67-0.7-2.51-1,0.76-.47,1.51-1,2.24-1.5C344,70.69,354.36,51.2,344.5,37.66S312.91,28,293.12,42.42c-0.74.53-1.44,1.09-2.12,1.68,0-.9-0.08-1.79-0.17-2.69a77.16,77.16,0,0,0-5-20.72l-0.1-.24q-0.32-.79-0.66-1.55C279.61,6.61,270.81-1,259.88.12h0c-0.68.07-1.34,0.18-2,.31-10,2.06-16.31,11.3-18.83,23.95A75.92,75.92,0,0,0,238.31,47c0.1,0.9.23,1.79,0.39,2.67-0.79-.43-1.6-0.83-2.42-1.19-22.38-9.93-44.43-9.15-51.23,6.16s7.43,32.19,29.81,42.11c0.83,0.37,1.67.7,2.51,1-0.76.47-1.51,1-2.25,1.5-19.79,14.42-30.14,33.91-20.28,47.44,8.43,11.57,25.52,10.41,42.66.84-4.28,10.68-9.53,24.76-14.92,41.64h22.82c3-9.06,5.94-17.19,8.62-24.25,5.47,12.59,14.36,20.5,25.45,19.32,16.66-1.77,24.16-22.53,21.57-46.88q-0.14-1.35-.4-2.67c0.79,0.43,1.6.83,2.42,1.19,22.38,9.93,44.43,9.15,51.23-6.16S346.86,97.53,324.48,87.6Zm-52.72,24.23a19.77,19.77,0,1,1,17.56-21.75A19.77,19.77,0,0,1,271.77,111.82Z" transform="translate(-42.49 0)"/></svg>